<svg width="22" height="16" viewBox="0 0 22 16" fill="none" xmlns="http://www.w3.org/2000/svg">
<path d="M20.8043 16H1.19565C0.535174 16 0 15.5027 0 14.8889V1.11111C0 0.497333 0.535174 0 1.19565 0H6.74204C7.46852 0 8.1553 0.306667 8.60917 0.834222L9.80435 2.22222H20.8043C21.4648 2.22222 22 2.71956 22 3.33333V14.8889C22 15.5027 21.4648 16 20.8043 16Z" fill="url(#paint0_linear_105_783)"/>
<path d="M0.478271 8.88891H10.0435V2.66669H1.43479C0.906315 2.66669 0.478271 3.06446 0.478271 3.55558V8.88891Z" fill="url(#paint1_linear_105_783)"/>
<path d="M0.478271 9.33331H10.0435V3.11108H1.43479C0.906315 3.11108 0.478271 3.50886 0.478271 3.99997V9.33331Z" fill="url(#paint2_linear_105_783)"/>
<path d="M0 14.6111V14.8889C0 15.5026 0.535174 16 1.19565 16H20.8043C21.4648 16 22 15.5026 22 14.8889V14.6111H0Z" fill="url(#paint3_linear_105_783)"/>
<path d="M20.8043 2.66669H9.80435L9.21274 3.03291C8.66322 3.3738 8.01709 3.55558 7.35613 3.55558H1.19565C0.535174 3.55558 0 4.05291 0 4.66669V14.4445C0 15.0582 0.535174 15.5556 1.19565 15.5556H20.8043C21.4648 15.5556 22 15.0582 22 14.4445V3.7778C22 3.16402 21.4648 2.66669 20.8043 2.66669Z" fill="url(#paint4_linear_105_783)"/>
<path d="M20.8043 15.5555H1.19565C0.535174 15.5555 0 15.0582 0 14.4444V5.11108C0 4.49731 0.535174 3.99997 1.19565 3.99997H7.53548C8.19643 3.99997 8.84257 3.8182 9.39257 3.47731L9.9837 3.11108H20.8043C21.4648 3.11108 22 3.60842 22 4.2222V14.4444C22 15.0582 21.4648 15.5555 20.8043 15.5555Z" fill="url(#paint5_radial_105_783)"/>
<defs>
<linearGradient id="paint0_linear_105_783" x1="-3.8347" y1="1.91467" x2="17.6328" y2="13.9741" gradientUnits="userSpaceOnUse">
<stop stop-color="#FAC017"/>
<stop offset="0.909" stop-color="#E1AB2D"/>
</linearGradient>
<linearGradient id="paint1_linear_105_783" x1="2.32005" y1="1.89069" x2="7.83488" y2="10.332" gradientUnits="userSpaceOnUse">
<stop stop-color="#FBFEF3"/>
<stop offset="0.909" stop-color="#E2E4E3"/>
</linearGradient>
<linearGradient id="paint2_linear_105_783" x1="0.478271" y1="6.2222" x2="10.0435" y2="6.2222" gradientUnits="userSpaceOnUse">
<stop stop-color="#FBFEF3"/>
<stop offset="0.909" stop-color="#E2E4E3"/>
</linearGradient>
<linearGradient id="paint3_linear_105_783" x1="7.58761" y1="15.2386" x2="21.0261" y2="15.4985" gradientUnits="userSpaceOnUse">
<stop stop-color="#E3A917"/>
<stop offset="0.464" stop-color="#D79C1E"/>
</linearGradient>
<linearGradient id="paint4_linear_105_783" x1="-2.8117" y1="3.45069" x2="16.234" y2="12.4891" gradientUnits="userSpaceOnUse">
<stop offset="0.34" stop-color="#FFEFB2"/>
<stop offset="0.485" stop-color="#FFEDAD"/>
<stop offset="0.652" stop-color="#FFE99F"/>
<stop offset="0.828" stop-color="#FEE289"/>
<stop offset="1" stop-color="#FED86B"/>
</linearGradient>
<radialGradient id="paint5_radial_105_783" cx="0" cy="0" r="1" gradientUnits="userSpaceOnUse" gradientTransform="translate(17.6172 19.6964) scale(25.7663 23.9444)">
<stop offset="0.199" stop-color="#FEC832"/>
<stop offset="0.601" stop-color="#FCD667"/>
<stop offset="0.68" stop-color="#FDDA75"/>
<stop offset="0.886" stop-color="#FEE496"/>
<stop offset="1" stop-color="#FFE8A2"/>
</radialGradient>
</defs>
</svg>
